<?xml version="1.0" encoding="utf-8"?>
<!-- Generator: Adobe Illustrator 24.0.2, SVG Export Plug-In . SVG Version: 6.00 Build 0)  -->
<svg version="1.1" id="Layer_1" xmlns="http://www.w3.org/2000/svg" xmlns:xlink="http://www.w3.org/1999/xlink" x="0px" y="0px"
	 viewBox="0 0 20 20" style="enable-background:new 0 0 20 20;" xml:space="preserve">
<style type="text/css">
	.st0{fill-rule:evenodd;clip-rule:evenodd;fill:#576BCC;}
</style>
<path class="st0" d="M5.3,0.3C5.5,0.1,5.7,0,6,0h9c0.6,0,1,0.4,1,1v6.5c2.3,1,4,3.3,4,6c0,3.6-2.9,6.5-6.5,6.5c-1.8,0-3.5-0.8-4.7-2
	H1c-0.6,0-1-0.4-1-1V6c0-0.3,0.1-0.5,0.3-0.7L5.3,0.3z M14,2v5c-0.2,0-0.3,0-0.5,0C9.9,7,7,9.9,7,13.5c0,0.9,0.2,1.7,0.5,2.5H2V7h4
	c0.6,0,1-0.4,1-1V2H14z M3.4,5H5V3.4L3.4,5z M13.5,9C11,9,9,11,9,13.5s2,4.5,4.5,4.5s4.5-2,4.5-4.5S16,9,13.5,9z M13.8,15.7l3-3.5
	l-1.5-1.3l-2.3,2.7l-1.2-1.1L10.3,14l2,1.7l0.8,0.7L13.8,15.7z"/>
<rect x="6.1" y="1.7" class="st0" width="8.9" height="5.9"/>
<rect x="1.6" y="6.9" class="st0" width="5.1" height="9.5"/>
<rect x="6.1" y="6.4" class="st0" width="5.2" height="2.6"/>
<rect x="5.3" y="8.3" class="st0" width="3.7" height="1.7"/>
<rect x="5.9" y="7" class="st0" width="2.1" height="9.4"/>
<rect x="3" y="3.1" class="st0" width="2.5" height="2.5"/>
</svg>
